<svg xmlns="http://www.w3.org/2000/svg" width="22.688" height="22.688" viewBox="0 0 22.688 22.688">
  <path id="Icon_material-location-searching" data-name="Icon material-location-searching" d="M22.063,11.813a9.275,9.275,0,0,0-8.188-8.188V1.5H11.813V3.624a9.275,9.275,0,0,0-8.188,8.188H1.5v2.063H3.624a9.275,9.275,0,0,0,8.188,8.188v2.124h2.063V22.063a9.275,9.275,0,0,0,8.188-8.188h2.124V11.813Zm-9.219,8.25a7.219,7.219,0,1,1,7.219-7.219A7.214,7.214,0,0,1,12.844,20.063Z" transform="translate(-1.5 -1.5)" />
</svg>
