<svg id="_021-rain-1" data-name="021-rain-1" xmlns="http://www.w3.org/2000/svg" width="17.255" height="14.135" viewBox="0 0 17.255 14.135">
  <circle id="Ellipse_28" data-name="Ellipse 28" cx="4.889" cy="4.889" r="4.889" transform="translate(7.392 0)" fill="#fcb641"/>
  <g id="Group_37" data-name="Group 37" transform="translate(0 4.315)">
    <path id="Path_253" data-name="Path 253" d="M15.321,126.08H13.788c.027-.288.045-.312.045-.484a3.236,3.236,0,0,0-2.517-3.2,3.366,3.366,0,0,0-2.343.315,4.867,4.867,0,0,0-3.748-2.146,4.49,4.49,0,0,0-.613-.044A4.686,4.686,0,0,0,0,125.273a4.808,4.808,0,0,0,1.461,3.467,4.7,4.7,0,0,0,3.2,1.544l10.66.053a2.138,2.138,0,0,0,0-4.256Z" transform="translate(0 -120.516)" fill="#fff"/>
  </g>
</svg>
